<svg xmlns="http://www.w3.org/2000/svg" width="35" height="32" viewBox="0 0 35 32"><g><g><path d="M32.817 20.777l-.887-.853c-.113.02-.216.064-.336.064-.972 0-1.761-.759-1.761-1.696 0-.115.044-.216.068-.324l-.886-.853H11.1l-.886.853c.023.11.068.209.068.324 0 .937-.788 1.697-1.76 1.697-.12 0-.225-.042-.337-.065l-.885.852v5.49l.886.852c.112-.02.216-.063.335-.063.973 0 1.762.759 1.762 1.694 0 .116-.045.216-.068.326l.885.852h17.915l.887-.854c-.023-.108-.068-.208-.068-.324 0-.935.788-1.696 1.76-1.696.12 0 .224.043.337.065l.886-.852zM5.128 32.019V15.024h29.86V32.02zM28.88 21.825c.973 0 1.762.76 1.762 1.697s-.79 1.696-1.762 1.696c-.973 0-1.761-.76-1.761-1.696 0-.938.788-1.697 1.761-1.697zm-8.822-2.768c2.942 0 5.328 1.999 5.328 4.465 0 2.464-2.386 4.462-5.328 4.462-2.943 0-5.328-1.998-5.328-4.462 0-2.466 2.385-4.465 5.328-4.465zm-8.822 2.769c.972 0 1.76.758 1.76 1.696 0 .937-.788 1.694-1.76 1.694s-1.76-.757-1.76-1.694c0-.938.788-1.696 1.76-1.696zM25.083 8.594c.971 0 1.76.759 1.76 1.695s-.789 1.695-1.76 1.695c-.972 0-1.762-.759-1.762-1.695s.79-1.695 1.762-1.695zM3.092 19.244L.01 13.824l7.143-3.767 11.905-6.279h-.002L26.2.011l3.915 6.879 3.509 6.174h-5.2a1.7 1.7 0 0 1 .802-.931c.105-.055.219-.068.326-.099l.351-1.157-2.738-4.815-1.204-.34c-.084.072-.156.158-.258.213-.858.449-1.925.149-2.393-.673-.058-.102-.071-.211-.106-.316l-1.2-.337L6.29 12.896l-.05.166H5.128c-1.124 0-2.036.88-2.036 1.962zm18.925-7.338c.21.367.328.758.407 1.156h-9.818c.478-1.04 1.329-1.984 2.511-2.606 2.582-1.36 5.67-.712 6.9 1.45z"/><path fill="#353535" d="M32.817 20.777l-.887-.853c-.113.02-.216.064-.336.064-.972 0-1.761-.759-1.761-1.696 0-.115.044-.216.068-.324l-.886-.853H11.1l-.886.853c.023.11.068.209.068.324 0 .937-.788 1.697-1.76 1.697-.12 0-.225-.042-.337-.065l-.885.852v5.49l.886.852c.112-.02.216-.063.335-.063.973 0 1.762.759 1.762 1.694 0 .116-.045.216-.068.326l.885.852h17.915l.887-.854c-.023-.108-.068-.208-.068-.324 0-.935.788-1.696 1.76-1.696.12 0 .224.043.337.065l.886-.852zM5.128 32.019V15.024h29.86V32.02zM28.88 21.825c.973 0 1.762.76 1.762 1.697s-.79 1.696-1.762 1.696c-.973 0-1.761-.76-1.761-1.696 0-.938.788-1.697 1.761-1.697zm-8.822-2.768c2.942 0 5.328 1.999 5.328 4.465 0 2.464-2.386 4.462-5.328 4.462-2.943 0-5.328-1.998-5.328-4.462 0-2.466 2.385-4.465 5.328-4.465zm-8.822 2.769c.972 0 1.76.758 1.76 1.696 0 .937-.788 1.694-1.76 1.694s-1.76-.757-1.76-1.694c0-.938.788-1.696 1.76-1.696zM25.083 8.594c.971 0 1.76.759 1.76 1.695s-.789 1.695-1.76 1.695c-.972 0-1.762-.759-1.762-1.695s.79-1.695 1.762-1.695zM3.092 19.244L.01 13.824l7.143-3.767 11.905-6.279h-.002L26.2.011l3.915 6.879 3.509 6.174h-5.2a1.7 1.7 0 0 1 .802-.931c.105-.055.219-.068.326-.099l.351-1.157-2.738-4.815-1.204-.34c-.084.072-.156.158-.258.213-.858.449-1.925.149-2.393-.673-.058-.102-.071-.211-.106-.316l-1.2-.337L6.29 12.896l-.05.166H5.128c-1.124 0-2.036.88-2.036 1.962zm18.925-7.338c.21.367.328.758.407 1.156h-9.818c.478-1.04 1.329-1.984 2.511-2.606 2.582-1.36 5.67-.712 6.9 1.45z"/></g></g></svg>